<?xml version="1.0" standalone="yes"?>

<svg version="1.1" viewBox="0.0 0.0 800.0 600.0" fill="none" stroke="none" stroke-linecap="square" stroke-miterlimit="10" xmlns="http://www.w3.org/2000/svg" xmlns:xlink="http://www.w3.org/1999/xlink"><clipPath id="p.0"><path d="m0 0l800.0 0l0 600.0l-800.0 0l0 -600.0z" clip-rule="nonzero"></path></clipPath><g clip-path="url(#p.0)"><path fill="#000000" fill-opacity="0.0" d="m0 0l800.0 0l0 600.0l-800.0 0z" fill-rule="nonzero"></path><path fill="#38761d" d="m423.0 325.01575l53.007874 0l0 50.015747l-53.007874 0z" fill-rule="nonzero"></path><path stroke="#38761d" stroke-width="1.0" stroke-linejoin="round" stroke-linecap="butt" d="m423.0 325.01575l53.007874 0l0 50.015747l-53.007874 0z" fill-rule="nonzero"></path><path fill="#438e22" d="m423.0 275.0l53.007874 0l0 50.015747l-53.007874 0z" fill-rule="nonzero"></path><path stroke="#438e22" stroke-width="1.0" stroke-linejoin="round" stroke-linecap="butt" d="m423.0 275.0l53.007874 0l0 50.015747l-53.007874 0z" fill-rule="nonzero"></path><path fill="#54b32b" d="m369.99213 275.0l53.007874 0l0 50.015747l-53.007874 0z" fill-rule="nonzero"></path><path stroke="#54b32b" stroke-width="1.0" stroke-linejoin="round" stroke-linecap="butt" d="m369.99213 275.0l53.007874 0l0 50.015747l-53.007874 0z" fill-rule="nonzero"></path><path fill="#458afa" d="m355.99213 205.97638l53.007874 0l0 50.015747l-53.007874 0z" fill-rule="nonzero"></path><path stroke="#458afa" stroke-width="1.0" stroke-linejoin="round" stroke-linecap="butt" d="m355.99213 205.97638l53.007874 0l0 50.015747l-53.007874 0z" fill-rule="nonzero"></path><path fill="#0634c7" d="m280.97638 190.9685l53.007874 0l0 50.015747l-53.007874 0z" fill-rule="nonzero"></path><path stroke="#0634c7" stroke-width="1.0" stroke-linejoin="round" stroke-linecap="butt" d="m280.97638 190.9685l53.007874 0l0 50.015747l-53.007874 0z" fill-rule="nonzero"></path><path fill="#438e22" d="m369.99213 325.01575l53.007874 0l0 50.015747l-53.007874 0z" fill-rule="nonzero"></path><path stroke="#438e22" stroke-width="1.0" stroke-linejoin="round" stroke-linecap="butt" d="m369.99213 325.01575l53.007874 0l0 50.015747l-53.007874 0z" fill-rule="nonzero"></path><path fill="#54b32b" d="m423.0 224.98425l53.007874 0l0 50.015747l-53.007874 0z" fill-rule="nonzero"></path><path stroke="#54b32b" stroke-width="1.0" stroke-linejoin="round" stroke-linecap="butt" d="m423.0 224.98425l53.007874 0l0 50.015747l-53.007874 0z" fill-rule="nonzero"></path><path fill="#54b32b" d="m316.98425 325.01575l53.007874 0l0 50.015747l-53.007874 0z" fill-rule="nonzero"></path><path stroke="#54b32b" stroke-width="1.0" stroke-linejoin="round" stroke-linecap="butt" d="m316.98425 325.01575l53.007874 0l0 50.015747l-53.007874 0z" fill-rule="nonzero"></path><path fill="#458afa" d="m296.99213 262.00787l53.007874 0l0 50.015747l-53.007874 0z" fill-rule="nonzero"></path><path stroke="#458afa" stroke-width="1.0" stroke-linejoin="round" stroke-linecap="butt" d="m296.99213 262.00787l53.007874 0l0 50.015747l-53.007874 0z" fill-rule="nonzero"></path></g></svg>

